<?xml version="1.0" encoding="UTF-8"?>
<svg id="Capa_2" xmlns="http://www.w3.org/2000/svg" viewBox="0 0 735.0032152212 469.7192643624">
  <defs>
    <style>
      .cls-1 {
        fill: #8cc63f;
      }

      .cls-2 {
        fill: blue;
      }

      .cls-3 {
        fill: red;
      }

      .cls-4 {
        fill: #f93;
      }
    </style>
  </defs>
  <g id="traveler_x5F_t">
    <path id="t" class="cls-4" d="M38.75,307.4176731891c7.1640625-.5,14.20703125-1.0390625,21.125-1.625,6.9140625-.58203125,14.125-1.20703125,21.625-1.875,1.6640625.16796875,2.75,1.04296875,3.25,2.625.5,1.5859375-.16796875,2.54296875-2,2.875-6.16796875.66796875-13.25,1.5859375-21.25,2.75-8,1.16796875-15.5859375,2.66796875-22.75,4.5.33203125,5.1684570312.5,10.4614257812.5,15.8754882812,0,5.41796875.125,10.75.375,16s.75,10.3359375,1.5,15.25c.75,4.91796875,1.95703125,9.4609375,3.625,13.625,2.33203125,2.8359375,4.6640625,4.5,7,5,2.33203125.5,4.5390625.375,6.625-.375,2.08203125-.75,4-1.9140625,5.75-3.5,1.75-1.58203125,3.2890625-3.125,4.625-4.625,1.1640625-1.1640625,2.125-1.1640625,2.875,0,.75,1.16796875.0390625,2.91796875-2.125,5.25-1,1.16796875-2.25,2.41796875-3.75,3.75s-3.29296875,2.45703125-5.375,3.375c-2.0859375.9140625-4.41796875,1.5-7,1.75-2.5859375.25-5.375-.04296875-8.375-.875-3.8359375-1-6.66796875-4.0859375-8.5-9.25-1.8359375-5.1640625-3.2109375-11.20703125-4.125-18.125-.91796875-6.9140625-1.54296875-14.125-1.875-21.625-.3359375-7.5-.75-14.25-1.25-20.2504882812-7.3359375.66796875-12.7109375,1.25-16.125,1.75-3.41796875.5-5.875.8364257812-7.375,1.0004882812-1.5.16796875-2.5.0859375-3-.25-.5-.3325195312-1.41796875-1.0825195312-2.75-2.2504882812.1640625-.83203125.20703125-1.625.125-2.375-.0859375-.75-.0859375-1.375,0-1.875.08203125-.5.4140625-1,1-1.5.58203125-.5,1.70703125-.9140625,3.375-1.25,2.5-.6640625,6.125-1.0390625,10.875-1.125,4.75-.08203125,9.375-.45703125,13.875-1.125-.16796875-5.33203125-.3359375-9.5-.5-12.5-.16796875-3-.3359375-5.625-.5-7.875-.16796875-2.25-.29296875-4.45703125-.375-6.625-.0859375-2.1640625-.125-5-.125-8.5,0-.83203125.45703125-1.45703125,1.375-1.875.9140625-.4140625,1.95703125-.6640625,3.125-.75,1.1640625-.08203125,2.25.0859375,3.25.5,1,.41796875,1.6640625,1.04296875,2,1.875.5,1.5.83203125,3.7109375,1,6.625.1640625,2.91796875.2890625,6,.375,9.25.08203125,3.25.125,6.54296875.125,9.875,0,3.3359375-.0859375,6.16796875-.25,8.5Z"/>
  </g>
  <g id="traveler_x5F_r2">
    <path id="r" class="cls-4" d="M75.7495117188,302.9176731891c-.16796875-1.5.625-1.875,2.375-1.125s3.5390625,1.54296875,5.375,2.375c.6640625,3.8359375,1.1640625,6.875,1.5,9.125.33203125,2.25.58203125,4.375.75,6.375.1640625,2.0004882812.33203125,4.1684570312.5,6.5004882812.1640625,2.3359375.4140625,5.41796875.75,9.25,1.5-3.83203125,3.33203125-7.375,5.5-10.625,2.1640625-3.25,4.95703125-6.0395507812,8.375-8.3754882812,3.4140625-2.33203125,7.5-4.0390625,12.25-5.125,4.75-1.08203125,10.45703125-1.45703125,17.125-1.125,0,1.3359375-.4609375,2.4609375-1.375,3.375-.91796875.91796875-3.04296875,1.625-6.375,2.125-4.8359375.8359375-9.04296875,2.4609375-12.625,4.8754882812-3.5859375,2.41796875-6.66796875,5.2109375-9.25,8.375-2.5859375,3.16796875-4.66796875,6.54296875-6.25,10.125-1.5859375,3.5859375-2.875,6.875-3.875,9.875-.16796875,1.5-.375,3.625-.625,6.375s-.41796875,5.66796875-.5,8.75c-.0859375,3.0859375-.16796875,6.0859375-.25,9-.0859375,2.91796875.0390625,5.2109375.375,6.875.1640625.8359375-.2109375,1.4609375-1.125,1.875-.91796875.4140625-1.9609375.70703125-3.125.875-1.16796875.1640625-2.25.08203125-3.25-.25-1-.3359375-1.5-.9140625-1.5-1.75.33203125-17.1640625-.125-31.95703125-1.375-44.375-1.25-12.4140625-2.375-23.5395507812-3.375-33.3754882812Z"/>
  </g>
  <g id="traveler_x5F_a">
    <path id="a" class="cls-4" d="M174.7475585938,308.4176731891c-.16796875,1-.54296875,3.0859375-1.125,6.25-.5859375,3.16796875-1.2109375,6.8754882812-1.875,11.1254882812-.66796875,4.25-1.25,8.7109375-1.75,13.375-.5,4.66796875-.79296875,9.0859375-.875,13.25-.0859375,4.16796875.1640625,7.7109375.75,10.625.58203125,2.91796875,1.5390625,4.7109375,2.875,5.375,3.83203125,1.8359375,7.75,1.2109375,11.75-1.875,4-3.08203125,8.6640625-7.7890625,14-14.125.5,0,.5390625.66796875.125,2-.41796875,1.3359375-1.0859375,2.79296875-2,4.375-.91796875,1.5859375-1.8359375,3.16796875-2.75,4.75-.91796875,1.5859375-1.625,2.625-2.125,3.125-1.3359375,1.66796875-3.25,3.54296875-5.75,5.625-2.5,2.0859375-5.16796875,3.75-8,5-2.8359375,1.25-5.54296875,1.79296875-8.125,1.625-2.5859375-.1640625-4.7109375-1.6640625-6.375-4.5-.8359375-2-1.3359375-4.45703125-1.5-7.375-.16796875-2.9140625-.16796875-5.875,0-8.875.1640625-3,.4140625-5.75.75-8.25.33203125-2.5.58203125-4.33203125.75-5.5-3.5,6.5-7.5,12.66796875-12,18.5-4.5,5.8359375-8.91796875,10.41796875-13.25,13.75-4.3359375,3.3359375-8.3359375,5.125-12,5.375-3.66796875.25-6.5-1.875-8.5-6.375-1.1640625-4.33203125-1.1640625-9.20703125,0-14.625,1.16796875-5.4140625,2.91796875-10.2890625,5.25-14.625,3.5-6,7.1640625-11.5,11-16.5,3.83203125-5,7.9140625-9.25,12.25-12.7504882812,4.33203125-3.5,8.875-6.0390625,13.625-7.625,4.75-1.58203125,9.70703125-1.95703125,14.875-1.125ZM127.7475585938,371.9181614703c1.6640625.3359375,4.33203125-.9140625,8-3.75,3.6640625-2.83203125,7.5-6.7890625,11.5-11.875,4-5.08203125,7.625-11,10.875-17.75s5.375-13.875,6.375-21.3754882812h-2.875c-1.25,0-2.7109375.5-4.375,1.5-6.3359375,4.1684570312-11.75,9.0434570312-16.25,14.6254882812-4.5,5.5859375-8,11-10.5,16.25s-4,9.9609375-4.5,14.125c-.5,4.16796875.08203125,6.91796875,1.75,8.25Z"/>
  </g>
  <g id="traveler_x5F_v">
    <path id="v" class="cls-4" d="M245.4936523438,299.9176731891c-.16796875-.5.08203125-.625.75-.375.6640625.25,1.4140625.625,2.25,1.125.83203125.5,1.625,1.0859375,2.375,1.75.75.66796875,1.125,1.25,1.125,1.75-1.8359375,13-5.4609375,25.8364257812-10.875,38.5004882812-5.41796875,12.66796875-12.125,24.75-20.125,36.25-2.16796875,2.16796875-4.2109375,3.25-6.125,3.25-1.91796875,0-3.29296875-.9140625-4.125-2.75-1.16796875-3.5-2.2109375-7.95703125-3.125-13.375-.91796875-5.4140625-1.8359375-11.1640625-2.75-17.25-.91796875-6.08203125-1.9609375-12.25-3.125-18.5-1.16796875-6.25-2.5-12.0395507812-4-17.3754882812-.8359375-2.83203125-.7109375-4.5390625.375-5.125,1.08203125-.58203125,3.45703125-.20703125,7.125,1.125.5,0,1.08203125,2.125,1.75,6.375.6640625,4.25,1.45703125,9.4184570312,2.375,15.5004882812.9140625,6.0859375,2,12.4609375,3.25,19.125,1.25,6.66796875,2.7890625,12.5,4.625,17.5.5.3359375,1.5-.6640625,3-3,1.5-2.33203125,3.25-5.375,5.25-9.125s4.125-8.08203125,6.375-13c2.25-4.9140625,4.33203125-9.9140625,6.25-15,1.9140625-5.08203125,3.5390625-10.0395507812,4.875-14.8754882812,1.33203125-4.83203125,2.1640625-9,2.5-12.5Z"/>
  </g>
  <g id="traveler_x5F_e2">
    <path id="e" class="cls-4" d="M276.7412109375,311.1676731891c.5-.1640625,1.9140625-.625,4.25-1.375,2.33203125-.75,4.25-.875,5.75-.375,4.83203125-.1640625,8.5390625,1.0859375,11.125,3.75,2.58203125,2.66796875,2.7890625,7.8364257812.625,15.5004882812-3.16796875,8.5-7.375,15.5859375-12.625,21.25-5.25,5.66796875-11.4609375,11.0859375-18.625,16.25,1.6640625,4.3359375,4.1640625,6.75,7.5,7.25,3.33203125.5,6.83203125-.0390625,10.5-1.625,3.6640625-1.58203125,7.25-3.70703125,10.75-6.375,3.5-2.6640625,6.33203125-5,8.5-7,3.5-3,6.2890625-5.5390625,8.375-7.625,2.08203125-2.08203125,4.2890625-4.625,6.625-7.625.5-.33203125.7890625-.2890625.875.125.08203125.41796875.0390625,1.04296875-.125,1.875-.16796875.8359375-.41796875,2-.75,3.5-.5,1.16796875-1,2.2109375-1.5,3.125-.5.91796875-1.2109375,1.91796875-2.125,3-.91796875,1.0859375-2.125,2.375-3.625,3.875s-3.3359375,3.5-5.5,6c-2.5,2.3359375-4.91796875,4.625-7.25,6.875-2.3359375,2.25-4.79296875,4.2109375-7.375,5.875-2.5859375,1.66796875-5.41796875,2.8359375-8.5,3.5-3.0859375.66796875-6.625.66796875-10.625,0-3.3359375-1.1640625-6-2.4140625-8-3.75-2-1.33203125-3.54296875-2.70703125-4.625-4.125-1.0859375-1.4140625-1.875-2.70703125-2.375-3.875-.5-1.1640625-.8359375-2.1640625-1-3-.8359375-3.33203125-1.16796875-7.83203125-1-13.5.1640625-5.6640625,1.83203125-13,5-22,2.1640625-4.6640625,4.5-8.625,7-11.8754882812,2.5-3.25,5.4140625-5.7890625,8.75-7.625ZM265.7412109375,355.4181614703c2.1640625-1.1640625,4.70703125-2.7890625,7.625-4.875,2.9140625-2.08203125,5.6640625-4.5,8.25-7.25,2.58203125-2.75,4.83203125-5.7890625,6.75-9.125,1.9140625-3.33203125,2.95703125-6.83203125,3.125-10.5.5-2.5.4140625-4.2504882812-.25-5.2504882812-.3359375-.5-.66796875-.75-1-.75-2.8359375-1.33203125-5.66796875-.9140625-8.5,1.25-2.8359375,2.1684570312-5.41796875,5.2504882812-7.75,9.2504882812-2.3359375,4-4.29296875,8.4609375-5.875,13.375-1.5859375,4.91796875-2.375,9.54296875-2.375,13.875Z"/>
  </g>
  <g id="traveler_x5F_l">
    <path id="l" class="cls-4" d="M335.2397460938,330.1681614703c0,.5.25,2.8359375.75,7,.5,4.16796875,1.08203125,9.25,1.75,15.25.6640625,6,1.45703125,12.4609375,2.375,19.375.9140625,6.91796875,1.75,13.5,2.5,19.75s1.45703125,11.75,2.125,16.5c.6640625,4.75,1.08203125,7.7890625,1.25,9.125-1-.16796875-1.8359375-.3359375-2.5-.5-.66796875-.16796875-1.3359375-.5859375-2-1.25-.66796875-.66796875-1.4609375-1.625-2.375-2.875-.91796875-1.25-2.2109375-3.04296875-3.875-5.375-2.16796875-15.3359375-3.875-28.70703125-5.125-40.125-1.25-11.4140625-2.29296875-20.70703125-3.125-27.875-3,4-5.1640625,6.66796875-6.5,8-1.33203125,1.3359375-2.1640625,2-2.5,2-.5,0-.58203125-.75-.25-2.25.16796875-.83203125.3359375-1.6640625.5-2.5.16796875-.83203125.3359375-1.58203125.5-2.25.16796875-.6640625.41796875-1.25.75-1.75,1.16796875-1.6640625,2.2109375-3.33203125,3.125-5,.9140625-1.6640625,1.625-3.1640625,2.125-4.5.6640625-1.6640625,1.1640625-3.25,1.5-4.75-.16796875-1.83203125-.29296875-3.4140625-.375-4.75-.0859375-1.3325195312-.125-2.7075195312-.125-4.1254882812,0-1.4140625-.04296875-2.875-.125-4.375-.0859375-1.5-.125-3.4140625-.125-5.75v-24.625c0-5.4140625.08203125-11.125.25-17.125.1640625-6,.375-11.70703125.625-17.125.25-5.4140625.58203125-10.33203125,1-14.75.4140625-4.4140625.875-7.7890625,1.375-10.125,1.1640625-4.83203125,2.95703125-8.5390625,5.375-11.125,2.4140625-2.58203125,4.95703125-4.08203125,7.625-4.5,2.6640625-.4140625,5.2890625.25,7.875,2,2.58203125,1.75,4.5390625,4.4609375,5.875,8.125,1.5,3.66796875,2.25,8.41796875,2.25,14.25,0,5.8359375-.5,12.2109375-1.5,19.125-1,6.91796875-2.375,14.125-4.125,21.625s-3.625,14.79296875-5.625,21.875c-2,7.0859375-4,13.7109375-6,19.875-2,6.1684570312-3.75,11.3364257812-5.25,15.5004882812ZM333.2397460938,315.9176731891c4.1640625-12.1640625,7.58203125-24.125,10.25-35.875,2.6640625-11.75,4.625-22.2890625,5.875-31.625,1.25-9.33203125,1.6640625-16.875,1.25-22.625-.41796875-5.75-1.625-8.70703125-3.625-8.875-3.16796875-1.1640625-5.66796875-.08203125-7.5,3.25-1.8359375,3.3359375-3.29296875,8-4.375,14-1.0859375,6-1.79296875,12.875-2.125,20.625-.3359375,7.75-.4609375,15.4609375-.375,23.125.08203125,7.66796875.20703125,14.91796875.375,21.75.1640625,6.8359375.25,12.25.25,16.25Z"/>
  </g>
  <g id="traveler_x5F_e">
    <path id="e-2" data-name="e" class="cls-4" d="M373.7377929688,311.1676731891c.5-.1640625,1.9140625-.625,4.25-1.375,2.33203125-.75,4.25-.875,5.75-.375,4.83203125-.1640625,8.5390625,1.0859375,11.125,3.75,2.58203125,2.66796875,2.7890625,7.8364257812.625,15.5004882812-3.16796875,8.5-7.375,15.5859375-12.625,21.25-5.25,5.66796875-11.4609375,11.0859375-18.625,16.25,1.6640625,4.3359375,4.1640625,6.75,7.5,7.25,3.33203125.5,6.83203125-.0390625,10.5-1.625,3.6640625-1.58203125,7.25-3.70703125,10.75-6.375,3.5-2.6640625,6.33203125-5,8.5-7,3.5-3,6.2890625-5.5390625,8.375-7.625,2.08203125-2.08203125,4.2890625-4.625,6.625-7.625.5-.33203125.7890625-.2890625.875.125.08203125.41796875.0390625,1.04296875-.125,1.875-.16796875.8359375-.41796875,2-.75,3.5-.5,1.16796875-1,2.2109375-1.5,3.125-.5.91796875-1.2109375,1.91796875-2.125,3-.91796875,1.0859375-2.125,2.375-3.625,3.875s-3.3359375,3.5-5.5,6c-2.5,2.3359375-4.91796875,4.625-7.25,6.875-2.3359375,2.25-4.79296875,4.2109375-7.375,5.875-2.5859375,1.66796875-5.41796875,2.8359375-8.5,3.5-3.0859375.66796875-6.625.66796875-10.625,0-3.3359375-1.1640625-6-2.4140625-8-3.75-2-1.33203125-3.54296875-2.70703125-4.625-4.125-1.0859375-1.4140625-1.875-2.70703125-2.375-3.875-.5-1.1640625-.8359375-2.1640625-1-3-.8359375-3.33203125-1.16796875-7.83203125-1-13.5.1640625-5.6640625,1.83203125-13,5-22,2.1640625-4.6640625,4.5-8.625,7-11.8754882812,2.5-3.25,5.4140625-5.7890625,8.75-7.625ZM362.7377929688,355.4181614703c2.1640625-1.1640625,4.70703125-2.7890625,7.625-4.875,2.9140625-2.08203125,5.6640625-4.5,8.25-7.25,2.58203125-2.75,4.83203125-5.7890625,6.75-9.125,1.9140625-3.33203125,2.95703125-6.83203125,3.125-10.5.5-2.5.4140625-4.2504882812-.25-5.2504882812-.3359375-.5-.66796875-.75-1-.75-2.8359375-1.33203125-5.66796875-.9140625-8.5,1.25-2.8359375,2.1684570312-5.41796875,5.2504882812-7.75,9.2504882812-2.3359375,4-4.29296875,8.4609375-5.875,13.375-1.5859375,4.91796875-2.375,9.54296875-2.375,13.875Z"/>
  </g>
  <g id="traveler_x5F_r">
    <path id="r-2" data-name="r" class="cls-4" d="M414.4907226562,302.9176731891c-.16796875-1.5.625-1.875,2.375-1.125s3.5390625,1.54296875,5.375,2.375c.6640625,3.8359375,1.1640625,6.875,1.5,9.125.33203125,2.25.58203125,4.375.75,6.375.1640625,2.0004882812.33203125,4.1684570312.5,6.5004882812.1640625,2.3359375.4140625,5.41796875.75,9.25,1.5-3.83203125,3.33203125-7.375,5.5-10.625,2.1640625-3.25,4.95703125-6.0395507812,8.375-8.3754882812,3.4140625-2.33203125,7.5-4.0390625,12.25-5.125,4.75-1.08203125,10.45703125-1.45703125,17.125-1.125,0,1.3359375-.4609375,2.4609375-1.375,3.375-.91796875.91796875-3.04296875,1.625-6.375,2.125-4.8359375.8359375-9.04296875,2.4609375-12.625,4.8754882812-3.5859375,2.41796875-6.66796875,5.2109375-9.25,8.375-2.5859375,3.16796875-4.66796875,6.54296875-6.25,10.125-1.5859375,3.5859375-2.875,6.875-3.875,9.875-.16796875,1.5-.375,3.625-.625,6.375s-.41796875,5.66796875-.5,8.75c-.0859375,3.0859375-.16796875,6.0859375-.25,9-.0859375,2.91796875.0390625,5.2109375.375,6.875.1640625.8359375-.2109375,1.4609375-1.125,1.875-.91796875.4140625-1.9609375.70703125-3.125.875-1.16796875.1640625-2.25.08203125-3.25-.25-1-.3359375-1.5-.9140625-1.5-1.75.33203125-17.1640625-.125-31.95703125-1.375-44.375-1.25-12.4140625-2.375-23.5395507812-3.375-33.3754882812Z"/>
  </g>
  <g id="tours_x5F_t">
    <path id="t-2" data-name="t" d="M378.4995117188,415.9035130328c4.2978515625-.2998046875,8.5234375-.623046875,12.6748046875-.974609375,4.1484375-.349609375,8.474609375-.724609375,12.974609375-1.125.9990234375.1005859375,1.650390625.6259765625,1.9501953125,1.5751953125.2998046875.951171875-.1005859375,1.525390625-1.2001953125,1.724609375-3.7001953125.400390625-7.9501953125.951171875-12.75,1.650390625-4.7998046875.7001953125-9.3515625,1.6005859375-13.6494140625,2.69921875.19921875,3.1015625.2998046875,6.27734375.2998046875,9.525390625,0,3.2509765625.0751953125,6.4501953125.224609375,9.599609375.150390625,3.150390625.4501953125,6.2021484375.900390625,9.150390625.4501953125,2.951171875,1.173828125,5.6767578125,2.1748046875,8.1748046875,1.3994140625,1.7021484375,2.798828125,2.7001953125,4.2001953125,3,1.3994140625.2998046875,2.7236328125.2255859375,3.974609375-.224609375,1.2490234375-.4501953125,2.400390625-1.1484375,3.4501953125-2.1005859375,1.0498046875-.94921875,1.9736328125-1.875,2.775390625-2.7744140625.6982421875-.6982421875,1.2744140625-.6982421875,1.724609375,0,.4501953125.7001953125.0234375,1.7509765625-1.275390625,3.1494140625-.599609375.701171875-1.349609375,1.451171875-2.25,2.25-.8994140625.7998046875-1.9755859375,1.474609375-3.224609375,2.025390625-1.251953125.548828125-2.650390625.900390625-4.2001953125,1.0498046875-1.5517578125.150390625-3.224609375-.025390625-5.0244140625-.5244140625-2.3017578125-.6005859375-4.0009765625-2.4521484375-5.1005859375-5.55078125-1.1015625-3.09765625-1.9267578125-6.7236328125-2.474609375-10.875-.55078125-4.1484375-.92578125-8.474609375-1.125-12.974609375-.2021484375-4.5-.4501953125-8.5498046875-.75-12.150390625-4.4013671875.4013671875-7.626953125.75-9.6748046875,1.05078125-2.05078125.2998046875-3.525390625.5009765625-4.42578125.599609375-.8994140625.1005859375-1.5.0517578125-1.7998046875-.150390625-.2998046875-.19921875-.8505859375-.6484375-1.6494140625-1.349609375.09765625-.4990234375.1240234375-.974609375.07421875-1.4248046875-.05078125-.4501953125-.05078125-.8251953125,0-1.125.0498046875-.2998046875.2490234375-.6005859375.6005859375-.900390625.3486328125-.2998046875,1.0244140625-.5478515625,2.0244140625-.75,1.5-.3984375,3.67578125-.623046875,6.525390625-.6748046875,2.849609375-.048828125,5.625-.2744140625,8.3251953125-.6748046875-.1005859375-3.19921875-.2021484375-5.7001953125-.2998046875-7.5-.1015625-1.7998046875-.2021484375-3.375-.30078125-4.7255859375-.1005859375-1.349609375-.17578125-2.673828125-.224609375-3.974609375-.0517578125-1.298828125-.0751953125-3-.0751953125-5.099609375,0-.5.2744140625-.875.8251953125-1.125.548828125-.2490234375,1.173828125-.3984375,1.875-.4501953125.6982421875-.0498046875,1.349609375.0517578125,1.9501953125.2998046875.599609375.2509765625.998046875.6259765625,1.2001953125,1.125.2998046875.900390625.4990234375,2.2265625.599609375,3.974609375.0986328125,1.7509765625.173828125,3.6005859375.224609375,5.55078125.0498046875,1.94921875.0751953125,3.92578125.0751953125,5.9248046875,0,2.0009765625-.0517578125,3.7001953125-.1494140625,5.099609375Z"/>
  </g>
  <g id="tours_x5F_o">
    <path id="o" d="M405.1967773438,415.6037083453c1.8984375.1005859375,3.9990234375.375,6.2998046875.8251953125,2.2998046875.4501953125,4.5498046875,1.0498046875,6.75,1.7998046875,2.19921875.75,4.2236328125,1.6005859375,6.0751953125,2.5498046875,1.849609375.9521484375,3.375,2.025390625,4.5751953125,3.2255859375,1.2001953125,1.1015625,1.8984375,2.7744140625,2.099609375,5.0244140625.19921875,2.25.0498046875,4.7255859375-.44921875,7.4248046875-.501953125,2.7001953125-1.275390625,5.4755859375-2.3251953125,8.3251953125-1.0498046875,2.8505859375-2.2265625,5.42578125-3.525390625,7.7255859375-1.30078125,2.30078125-2.7001953125,4.19921875-4.2001953125,5.69921875s-2.9013671875,2.25-4.19921875,2.25c-2.201171875,0-4.05078125-.5244140625-5.55078125-1.57421875-1.5-1.05078125-2.69921875-2.3251953125-3.599609375-3.8251953125s-1.5751953125-3.0751953125-2.025390625-4.7255859375c-.44921875-1.6494140625-.7236328125-3.07421875-.82421875-4.2744140625-.30078125-5.2998046875-.349609375-9.9990234375-.150390625-14.1005859375.201171875-4.0986328125.548828125-7.5,1.0498046875-10.19921875-.2998046875-.5-.599609375-.94921875-.8994140625-1.3505859375-.30078125-.3984375-.6005859375-.7734375-.900390625-1.125-.2998046875-.3486328125-.6494140625-.6748046875-1.0498046875-.974609375.400390625-.19921875.8017578125-.4990234375,1.2001953125-.900390625.80078125-.599609375,1.349609375-1.2001953125,1.6494140625-1.7998046875ZM410.5971679688,451.3039036578c.2998046875.400390625.6982421875.8251953125,1.2001953125,1.2744140625.4990234375.4501953125,1.125.8017578125,1.875,1.05078125.75.25,1.5234375.2763671875,2.32421875.07421875.7998046875-.19921875,1.650390625-.75,2.55078125-1.6494140625,2.3994140625-2.4990234375,4.19921875-5.07421875,5.3994140625-7.7255859375,1.2001953125-2.6484375,1.9736328125-5.1484375,2.3251953125-7.5.349609375-2.34765625.2998046875-4.4248046875-.150390625-6.224609375-.44921875-1.7998046875-1.17578125-3.0986328125-2.1748046875-3.900390625-.8017578125-.4990234375-1.4765625-.9228515625-2.0244140625-1.2744140625-.55078125-.349609375-1.251953125-.6748046875-2.1005859375-.9755859375-.8505859375-.2998046875-1.9267578125-.623046875-3.224609375-.974609375-1.30078125-.349609375-3-.8251953125-5.1005859375-1.4248046875-1,3.201171875-1.701171875,6.400390625-2.099609375,9.599609375-.400390625,3.2021484375-.576171875,6.126953125-.525390625,8.775390625.0498046875,2.650390625.2490234375,4.9501953125.6005859375,6.8994140625.3486328125,1.9501953125.7236328125,3.27734375,1.125,3.9755859375Z"/>
  </g>
  <g id="tours_x5F_u">
    <path id="u" d="M443.5971679688,454.0040989703c.6982421875.5009765625,1.8486328125-.349609375,3.44921875-2.55078125,1.5986328125-2.1982421875,3.150390625-5.0244140625,4.650390625-8.474609375s2.7490234375-7.125,3.75-11.025390625c.9990234375-3.8994140625,1.298828125-7.2978515625.900390625-10.19921875,0-.6005859375.248046875-.9755859375.75-1.125.4990234375-.150390625,1.0732421875-.2255859375,1.724609375-.2255859375.6494140625,0,1.298828125.0517578125,1.9501953125.150390625.6494140625.1005859375,1.125.201171875,1.4248046875.2998046875-.201171875,2.201171875-.4755859375,4.9755859375-.8251953125,8.3251953125-.3515625,3.3515625-.576171875,6.6748046875-.6748046875,9.974609375-.1005859375,3.2998046875.0234375,6.2998046875.375,9,.349609375,2.7001953125,1.1748046875,4.451171875,2.4755859375,5.25,1.0986328125.701171875,2.3740234375.6513671875,3.82421875-.1494140625,1.44921875-.7998046875,2.8505859375-1.80078125,4.2001953125-3,1.3505859375-1.2001953125,2.5732421875-2.2734375,3.6748046875-3.2255859375,1.099609375-.94921875,1.80078125-1.2744140625,2.1005859375-.974609375-.4013671875,1.701171875-1.251953125,3.3515625-2.5498046875,4.9501953125-1.30078125,1.6005859375-2.775390625,2.9501953125-4.42578125,4.0498046875-1.6494140625,1.1015625-3.400390625,1.875-5.25,2.3251953125-1.8515625.44921875-3.5244140625.375-5.0244140625-.2255859375-.6005859375-.0986328125-1.076171875-.6748046875-1.4248046875-1.724609375-.3515625-1.0498046875-.65234375-2.2734375-.900390625-3.6748046875-.2509765625-1.3994140625-.4501953125-2.8994140625-.599609375-4.5-.150390625-1.5986328125-.326171875-3.0498046875-.525390625-4.3505859375-.8017578125,1.6005859375-1.701171875,3.4013671875-2.7001953125,5.400390625-1.0009765625,2.0009765625-2.001953125,3.8994140625-3,5.7001953125-1.0009765625,1.7998046875-1.9501953125,3.3515625-2.849609375,4.6494140625-.900390625,1.30078125-1.650390625,2.048828125-2.25,2.25-2.001953125.7998046875-3.55078125.9755859375-4.650390625.525390625-1.1015625-.4501953125-1.8515625-1.0732421875-2.25-1.875-.599609375-.2998046875-1.0263671875-1.32421875-1.275390625-3.0751953125-.25-1.748046875-.44921875-3.974609375-.599609375-6.6748046875s-.224609375-5.7490234375-.224609375-9.150390625v-10.4248046875c0-3.548828125-.0517578125-7.0498046875-.150390625-10.5-.1005859375-3.4501953125-.2509765625-6.623046875-.4501953125-9.525390625.6982421875,0,1.3994140625.0517578125,2.1005859375.150390625.599609375.1005859375,1.19921875.224609375,1.7998046875.375.599609375.150390625,1.0986328125.4755859375,1.5.974609375.4990234375,2.3017578125.57421875,6.3515625.224609375,12.150390625-.3515625,5.80078125-.6259765625,12.8017578125-.8251953125,21,0,.2998046875.0234375.876953125.0751953125,1.724609375.0498046875.8515625.150390625,1.77734375.2998046875,2.775390625.150390625,1.0009765625.3984375,1.9501953125.75,2.849609375.349609375.900390625.8251953125,1.5,1.42578125,1.80078125Z"/>
  </g>
  <g id="tours_x5F_r">
    <path id="r-3" data-name="r" d="M475.2485351562,413.2033177203c-.1005859375-.8994140625.375-1.125,1.4248046875-.6748046875,1.05078125.4501953125,2.1240234375.92578125,3.2255859375,1.4248046875.3984375,2.3017578125.6982421875,4.125.8994140625,5.4755859375.19921875,1.349609375.349609375,2.625.4501953125,3.8251953125.0986328125,1.19921875.19921875,2.5.2998046875,3.8994140625.0986328125,1.4013671875.2490234375,3.2509765625.4501953125,5.5498046875.900390625-2.298828125,1.9990234375-4.4248046875,3.2998046875-6.375,1.298828125-1.94921875,2.974609375-3.623046875,5.025390625-5.0244140625,2.048828125-1.3994140625,4.5-2.423828125,7.349609375-3.0751953125,2.8505859375-.6494140625,6.2744140625-.8740234375,10.275390625-.6748046875,0,.8017578125-.2763671875,1.4765625-.8251953125,2.0244140625-.55078125.55078125-1.8251953125.9755859375-3.8251953125,1.275390625-2.9013671875.501953125-5.42578125,1.4765625-7.57421875,2.9248046875-2.15234375,1.451171875-4.0009765625,3.126953125-5.55078125,5.025390625-1.55078125,1.900390625-2.80078125,3.92578125-3.75,6.0751953125-.951171875,2.1513671875-1.724609375,4.125-2.32421875,5.9248046875-.1015625.8994140625-.2255859375,2.1748046875-.375,3.8251953125-.150390625,1.6494140625-.2509765625,3.400390625-.30078125,5.25-.05078125,1.8515625-.1005859375,3.6513671875-.1494140625,5.3994140625-.0517578125,1.7509765625.0234375,3.126953125.224609375,4.125.0986328125.501953125-.1259765625.876953125-.6748046875,1.125-.55078125.2490234375-1.1767578125.4248046875-1.875.525390625-.701171875.0986328125-1.349609375.048828125-1.9501953125-.150390625-.599609375-.201171875-.8994140625-.5478515625-.8994140625-1.0498046875.19921875-10.298828125-.0751953125-19.173828125-.8251953125-26.625-.75-7.4482421875-1.4248046875-14.123046875-2.025390625-20.025390625Z"/>
  </g>
  <g id="tours_x5F_s">
    <path id="s" d="M519.1977539062,413.3537083453c2.498046875.400390625,4.5751953125.951171875,6.224609375,1.650390625,1.650390625.7001953125,2.94921875,1.4765625,3.900390625,2.32421875.94921875.8515625,1.69921875,1.7255859375,2.25,2.625.548828125.900390625,1.0732421875,1.7509765625,1.5751953125,2.55078125-.1005859375.400390625-.5771484375.3515625-1.4248046875-.150390625-.8515625-.4990234375-1.67578125-.998046875-2.4755859375-1.5-2.2001953125-1.3994140625-4.8515625-2.25-7.9501953125-2.5498046875-3.1005859375-.2998046875-5.9765625-.1240234375-8.625.5244140625-2.650390625.65234375-4.7763671875,1.77734375-6.375,3.375-1.6005859375,1.6015625-2.0009765625,3.55078125-1.19921875,5.8505859375.798828125,2.3017578125,2.2236328125,4.30078125,4.2744140625,6,2.048828125,1.701171875,4.32421875,3.224609375,6.8251953125,4.5751953125,2.498046875,1.349609375,4.9990234375,2.5751953125,7.5,3.6748046875,2.498046875,1.1015625,4.548828125,2.2001953125,6.150390625,3.2998046875,1.9990234375-1.099609375,3.6982421875-2.025390625,5.099609375-2.775390625,1.3994140625-.75,2.6484375-1.4482421875,3.75-2.099609375,1.099609375-.6494140625,2.224609375-1.2490234375,3.375-1.7998046875,1.1484375-.548828125,2.474609375-1.1748046875,3.974609375-1.875.19921875-.0986328125.375-.150390625.525390625-.150390625s.150390625.126953125,0,.375c-.150390625.2509765625-.55078125.6513671875-1.2001953125,1.2001953125-.6513671875.55078125-1.67578125,1.326171875-3.0751953125,2.3251953125-.7001953125.5009765625-2.0009765625,1.349609375-3.8994140625,2.5498046875-1.9013671875,1.2001953125-3.9521484375,2.5009765625-6.150390625,3.900390625,1.2001953125,1.1015625,2.1494140625,2.25,2.8505859375,3.44921875.599609375,1.1015625,1.0234375,2.2763671875,1.2744140625,3.525390625.2490234375,1.251953125.0234375,2.5263671875-.6748046875,3.8251953125-2.001953125,3.19921875-4.251953125,5.7001953125-6.75,7.5-2.5009765625,1.7998046875-4.7998046875,3.048828125-6.900390625,3.75-1.4013671875.4990234375-2.9501953125.5478515625-4.6494140625.1494140625-1.7021484375-.400390625-3.0517578125-1.19921875-4.0498046875-2.3994140625-1.1015625-1.6005859375-1.3759765625-3.2255859375-.8251953125-4.875.5478515625-1.650390625,1.4736328125-3.2490234375,2.7744140625-4.7998046875,1.298828125-1.5498046875,2.798828125-3.0234375,4.5-4.42578125,1.69921875-1.3984375,3.19921875-2.6484375,4.5-3.75-.8994140625-.998046875-2.650390625-2.2236328125-5.25-3.6748046875-2.6015625-1.4482421875-5.275390625-3.048828125-8.0244140625-4.7998046875-2.751953125-1.748046875-5.2265625-3.623046875-7.4248046875-5.625-2.19921875-1.9990234375-3.3984375-3.998046875-3.6005859375-6-.3984375-2.1982421875-.1240234375-4.32421875.8251953125-6.375.951171875-2.048828125,2.3486328125-3.8486328125,4.2001953125-5.400390625,1.8486328125-1.548828125,3.998046875-2.69921875,6.4501953125-3.44921875,2.44921875-.75,5.0244140625-.923828125,7.724609375-.525390625ZM517.8481445312,464.8039036578c1.0986328125.4990234375,2.34765625.4990234375,3.75,0,1.3984375-.501953125,2.72265625-1.2255859375,3.974609375-2.1748046875,1.2490234375-.9521484375,2.3486328125-2.001953125,3.2998046875-3.150390625.94921875-1.1484375,1.5751953125-2.1748046875,1.875-3.0751953125.2998046875-.798828125.0234375-1.6728515625-.8251953125-2.625-.8505859375-.94921875-1.724609375-1.724609375-2.625-2.3251953125-1.1015625.8017578125-2.3505859375,1.826171875-3.75,3.0751953125-1.4013671875,1.251953125-2.625,2.5263671875-3.6748046875,3.8251953125-1.0498046875,1.30078125-1.8251953125,2.5498046875-2.3251953125,3.75-.5009765625,1.2001953125-.400390625,2.099609375.30078125,2.7001953125Z"/>
  </g>
  <g id="Maleta_x5F_A2">
    <path class="cls-2" d="M581.3211123237,186.6994021576c-8.9693603516-8.9693603516-17.5908813477-2.0869750977-17.5908813477-2.0869750977l-46.4888305664,37.6738891602,6.3175048828,7.7885742188c12.5523681641-9.5892944336,44.1234130859-33.7514648438,45.9757080078-35.6037597656,2.3151855469-2.315246582,4.1087036133-.6412963867,4.1087036133-.6412963867,0,0,4.1738891602,5.0434570312,6.6956176758,8.3043212891,2.5217895508,3.2608642578-.6087036133,4.2174072266-.6087036133,4.2174072266l-41.739074707,32.3478393555s-2.2888183594,1.5794067383-4.7357788086,3.3297729492l54.4748535156,67.159362793s42.735534668-73.3444824219-6.4091186523-122.4891357422Z"/>
  </g>
  <g id="Maleta_x5F_N">
    <path class="cls-4" d="M557.8607241401,260.5689700287c-6.6605224609-8.19140625-12.6480712891-14.9367675781-20.0765380859-21.7264404297-1.0879516602.7532958984-6.4976196289,4.5119628906-9.0430297852,6.5307617188-2.8369750977,2.25-4.3043823242.4891357422-4.3043823242.4891357422,0,0-3.5543212891-4.9238891602-6.0978393555-7.5978393555-2.5434570312-2.6738891602.1304321289-4.3043212891.1304321289-4.3043212891,0,0,2.7752685547-2.1162719727,7.028137207-5.3666992188-2.6408081055-2.0294799805-5.477355957-4.1203613281-8.5607299805-6.3072509766-.4866333008.4276733398-1.4995727539,1.2343139648-2.7055053711,2.3092041016-4.1274414062,3.6787109375-10.5159301758,10.4987792969-5.8053588867,16.0169067383,10.2398681641,11.9952392578,5.0434570312,17.7391357422,5.0434570312,17.7391357422,0,0-19.6521606445,17.2174072266-38.434753418,29.7391357422s-6.7825927734,26.6087036133-6.7825927734,26.6087036133l46.434753418,61.5651855469s44.3333740234-12.1338500977,73.0434570312-66.9130249023c-7.1738891602-14.3478393555-18.0930786133-34.2993774414-29.8695068359-48.7825927734Z"/>
  </g>
  <g id="Maleta_x5F_R">
    <path class="cls-3" d="M519.9316787418,381.847147292s27.8203205554-13.8434052694,39.8646829113-22.7412046975c14.8138057468-10.943731881,35.1026996597-29.0487052457,35.1026996597-29.0487052457.4004017983-.2798313691.9556852553-.1149559124,1.1350906335.3394017721,2.2515059602,5.7021090719,14.4612504024,36.486589546,10.8265430031,40.9114507278-10.1155923921,12.3146342165-48.9877004741,39.2367137887-49.9130434783,39.652173913-8.5217391304,3.8260869565-14.0084487885,1.6859362093-17.3043478261-1.1304347826-5.4366361635-4.6456472756-16.627808805-20.2380937363-20.1897297684-25.2813881663-.6199365156-.8777629847-.4027156-2.085708881.4781048652-2.7012935207Z"/>
  </g>
  <g id="Maleta_x5F_A">
    <path class="cls-2" d="M607.5317483552,369.1559159356c-.1873577537,1.2065217391.5547102269,1.0805161827.9213378985.8315217391,9.9699332297-6.7710600406,89.8408580308-65.0834667116,95.4510949176-72.1576033882,1.7086791992-2.154510498-15.7391383959-39.2173966118-28.1739210046-56.8695705248-23.4583404943-33.3010008416-49.7697710969-48.017410678-55.1729899525-50.8047239211-.364758821-.1881650771-.765385346.1667361732-.6305417009.554385867,26.0600407545,74.9176337755-12.9296672817,126.035763932-21.9025912981,136.4569663611-1.09118339,1.2673062843-1.4654791574,2.9967820043-.9880630804,4.5995359773,0,0,11.8898382058,31.4873139765,10.4956742203,37.3894878895Z"/>
  </g>
  <g id="Maleta_x5F_V">
    <path class="cls-1" d="M620.1441198178,191.7534039685l-2.2764460407-6.5873142299c-.4267924805-1.2350023367-.0820688594-2.600606427.8846768909-3.4796884752,5.4811959886-4.9841656861,23.3412968494-21.1307467622,24.4996486292-20.9652679365,10.7636387691-3.5104074297,15.1304347826,2.152173913,15.1304347826,2.152173913,0,0,54.7392361757,69.4917852065,72,93.3913043478,7.347826087,10.1739130435,4.557771563,16.1739130435,1.0434782609,20.0869565217-5.8298588289,6.4913452316-26.9228831435,22.2071032182-26.9228831435,22.2071032182-.174474885.1439140733-.4373122315.061626554-.4894525892-.1584509984-.885398983-3.7371519754-8.2262876012-28.8198828775-30.4572294847-58.3964783068-32.8779142617-43.741591057-53.4122273055-48.250338054-53.4122273055-48.250338054Z"/>
  </g>
  <g id="Avion">
    <path d="M537.9076503229,82.3993728015l-54.4061005607,44.8237733836c-1.3536681394,1.10098342-3.75.0326086957-3.7826086957-1.875l-.4565217391-6.4891304348c-.1326627683-.6798966877.2399252418-1.4506265551.6818245714-1.9840906106l27.2773258514-32.9293843611c.5942696179-.7174065658.6997205055-1.7214670901.2674640415-2.546683976l-4.6668318556-7.3441888784c-.6222378307-1.187908586-.5443054894-1.7136706481.6847826087-2.25l4.4347826087-3.0326086957c1.016205375-.4434350727,1.3489524943-.3493243965,1.9756481293.5653124763l2.7665779055,3.783212477c.8820783811,1.2873576372,1.6634439007,1.1505111429,2.6273391826-.0767858228l11.7173913043-13.9347826087c.5651734753-.7196172701.8644750406-2.2790985598.4347826087-3.0869565217l-21.041112679-41.292918178c-.201159199-.3781962363-.3027001842-.8013875705-.295052011-1.2296852729l-.1798850541-11.0184175452c.0338934013-1.8980304703,2.0730297719-3.0799843432,3.7368573632-2.1660116001l9.8248160521,6.4427525538c.4177110365.2294567682.761879455.5725447055.9926485079.9895321906l22.6144132428,39.5182261127c.4432227885.8008801595,1.9773337389,2.0379579892,2.8890025575,1.9560102302l17.8128639673-1.4008746944c1.5378861516-.1382369574,2.510284387-1.7167386342,1.9419856201-3.1524404776l-.9604932532-2.4265087567c-.4464876218-1.1279684895.0551428818-2.4091738056,1.1488000281-2.9341291902l3.1658008181-1.5195842608c1.1005118634-.5282456486,2.4220715153-.1095107451,3.0175673023.9561132948l3.166725797,5.6667724788c.4443181359.7950956117,1.3141916146,1.2550762084,2.2214583719,1.174685483l42.6864595309-3.7823444399c.6087332608-.0539383902,1.526800218.2406371712,1.9962742728.6318655503l4.1739130435,5.1086956522c1.3884324005,1.1570270004.7996315784,2.9879824648-.9130434783,3.5652173913l-66.7218179241,21.6659846884c-1.3375540103.4508052405-1.9621238384,1.9847959484-1.3198653134,3.2416889758l22.4497500256,43.9339194049c.3675119489.7192169323,1.0838247948,1.194398998,1.8893457683,1.253339557l18.9814137969,1.3888839364c.7028605517.0514288209,1.3438474791.4207427395,1.7408532375,1.0030178519l1.2866791623,1.887129438c.9407764536,1.3798054653.152510821,3.2712684916-1.4897155897,3.5746096757l-22.9690321119,4.2426874602c-.5466822335.1009795208-1.0386466323.3956326977-1.385691354.829934769l-15.4544818987,19.3401976108c-1.0775180434,1.3484380794-3.1992504434,1.0827350746-3.9109809881-.4897693036l-2.1428983164-4.734540354c-.2992853886-.6612440445-.2705444653-1.4246756512.0776110394-2.0615454768l9.525682478-17.4250289233c.3836588418-.7018149545.3771673013-1.552112057-.0171621211-2.2479875084l-24.6265488073-43.4586155423c-.7050650381-1.2442324201-2.3595168323-1.5559264477-3.4689970445-.6535492085Z"/>
  </g>
</svg>