<?xml version="1.0" encoding="UTF-8"?>
<svg id="Capa_2" xmlns="http://www.w3.org/2000/svg" viewBox="0 0 736.0032775549 517.9552708453">
  <defs>
    <style>
      .cls-1, .cls-2, .cls-3 {
        fill: #fff;
      }

      .cls-2 {
        font-size: 150px;
      }

      .cls-2, .cls-3 {
        font-family: JennaSue, 'Jenna Sue';
      }

      .cls-4 {
        letter-spacing: -.023984375em;
      }

      .cls-5 {
        letter-spacing: .0229941406em;
      }

      .cls-3 {
        font-size: 250px;
      }

      .cls-6 {
        letter-spacing: -.0239863281em;
      }

      .cls-7 {
        letter-spacing: .0519856771em;
      }
    </style>
  </defs>
  <g id="Capa_1-2" data-name="Capa_1">
    <text class="cls-3" transform="translate(.0001996629 381.9177685565)"><tspan x="0" y="0">trav</tspan><tspan class="cls-5" x="255.2412109375" y="0">e</tspan><tspan x="323.4897460938" y="0">l</tspan><tspan class="cls-6" x="352.2373046875" y="0">e</tspan><tspan x="408.7407226562" y="0">r</tspan></text>
    <text class="cls-2" transform="translate(355.6492932908 459.6039191074)"><tspan class="cls-7" x="0" y="0">t</tspan><tspan x="49.7978515625" y="0">o</tspan><tspan class="cls-4" x="79.4975585938" y="0">u</tspan><tspan x="116.5493164062" y="0">rs</tspan></text>
    <path class="cls-1" d="M582.3211746575,186.6994021576c-8.9693603516-8.9693603516-17.5908813477-2.0869750977-17.5908813477-2.0869750977l-46.4888305664,37.6738891602,6.3175048828,7.7885742188c12.5523681641-9.5892944336,44.1234130859-33.7514648438,45.9757080078-35.6037597656,2.3151855469-2.315246582,4.1087036133-.6412963867,4.1087036133-.6412963867,0,0,4.1738891602,5.0434570312,6.6956176758,8.3043212891,2.5217895508,3.2608642578-.6087036133,4.2174072266-.6087036133,4.2174072266l-41.739074707,32.3478393555s-2.2888183594,1.5794067383-4.7357788086,3.3297729492l54.4748535156,67.159362793s42.735534668-73.3444824219-6.4091186523-122.4891357422Z"/>
    <path class="cls-1" d="M558.8607864739,260.5689700287c-6.6605224609-8.19140625-12.6480712891-14.9367675781-20.0765380859-21.7264404297-1.0879516602.7532958984-6.4976196289,4.5119628906-9.0430297852,6.5307617188-2.8369750977,2.25-4.3043823242.4891357422-4.3043823242.4891357422,0,0-3.5543212891-4.9238891602-6.0978393555-7.5978393555-2.5434570312-2.6738891602.1304321289-4.3043212891.1304321289-4.3043212891,0,0,2.7752685547-2.1162719727,7.028137207-5.3666992188-2.6408081055-2.0294799805-5.477355957-4.1203613281-8.5607299805-6.3072509766-.4866333008.4276733398-1.4995727539,1.2343139648-2.7055053711,2.3092041016-4.1274414062,3.6787109375-10.5159301758,10.4987792969-5.8053588867,16.0169067383,10.2398681641,11.9952392578,5.0434570312,17.7391357422,5.0434570312,17.7391357422,0,0-19.6521606445,17.2174072266-38.434753418,29.7391357422s-6.7825927734,26.6087036133-6.7825927734,26.6087036133l46.434753418,61.5651855469s44.3333740234-12.1338500977,73.0434570312-66.9130249023c-7.1738891602-14.3478393555-18.0930786133-34.2993774414-29.8695068359-48.7825927734Z"/>
    <path class="cls-1" d="M520.9317410756,381.847147292s27.8203205554-13.8434052694,39.8646829113-22.7412046975c14.8138057468-10.943731881,35.1026996597-29.0487052457,35.1026996597-29.0487052457.4004017983-.2798313691.9556852553-.1149559124,1.1350906335.3394017721,2.2515059602,5.7021090719,14.4612504024,36.486589546,10.8265430031,40.9114507278-10.1155923921,12.3146342165-48.9877004741,39.2367137887-49.9130434783,39.652173913-8.5217391304,3.8260869565-14.0084487885,1.6859362093-17.3043478261-1.1304347826-5.4366361635-4.6456472756-16.627808805-20.2380937363-20.1897297684-25.2813881663-.6199365156-.8777629847-.4027156-2.085708881.4781048652-2.7012935207Z"/>
    <path class="cls-1" d="M608.531810689,369.1559159356c-.1873577537,1.2065217391.5547102269,1.0805161827.9213378985.8315217391,9.9699332297-6.7710600406,89.8408580308-65.0834667116,95.4510949176-72.1576033882,1.7086791992-2.154510498-15.7391383959-39.2173966118-28.1739210046-56.8695705248-23.4583404943-33.3010008416-49.7697710969-48.017410678-55.1729899525-50.8047239211-.364758821-.1881650771-.765385346.1667361732-.6305417009.554385867,26.0600407545,74.9176337755-12.9296672817,126.035763932-21.9025912981,136.4569663611-1.09118339,1.2673062843-1.4654791574,2.9967820043-.9880630804,4.5995359773,0,0,11.8898382058,31.4873139765,10.4956742203,37.3894878895Z"/>
    <path class="cls-1" d="M621.1441821515,191.7534039685l-2.2764460407-6.5873142299c-.4267924805-1.2350023367-.0820688594-2.600606427.8846768909-3.4796884752,5.4811959886-4.9841656861,23.3412968494-21.1307467622,24.4996486292-20.9652679365,10.7636387691-3.5104074297,15.1304347826,2.152173913,15.1304347826,2.152173913,0,0,54.7392361757,69.4917852065,72,93.3913043478,7.347826087,10.1739130435,4.557771563,16.1739130435,1.0434782609,20.0869565217-5.8298588289,6.4913452316-26.9228831435,22.2071032182-26.9228831435,22.2071032182-.174474885.1439140733-.4373122315.061626554-.4894525892-.1584509984-.885398983-3.7371519754-8.2262876012-28.8198828775-30.4572294847-58.3964783068-32.8779142617-43.741591057-53.4122273055-48.250338054-53.4122273055-48.250338054Z"/>
    <path class="cls-1" d="M538.9077126567,82.3993728015l-54.4061005607,44.8237733836c-1.3536681394,1.10098342-3.75.0326086957-3.7826086957-1.875l-.4565217391-6.4891304348c-.1326627683-.6798966877.2399252418-1.4506265551.6818245714-1.9840906106l27.2773258514-32.9293843611c.5942696179-.7174065658.6997205055-1.7214670901.2674640415-2.546683976l-4.6668318556-7.3441888784c-.6222378307-1.187908586-.5443054894-1.7136706481.6847826087-2.25l4.4347826087-3.0326086957c1.016205375-.4434350727,1.3489524943-.3493243965,1.9756481293.5653124763l2.7665779055,3.783212477c.8820783811,1.2873576372,1.6634439007,1.1505111429,2.6273391826-.0767858228l11.7173913043-13.9347826087c.5651734753-.7196172701.8644750406-2.2790985598.4347826087-3.0869565217l-21.041112679-41.292918178c-.201159199-.3781962363-.3027001842-.8013875705-.295052011-1.2296852729l-.1798850541-11.0184175452c.0338934013-1.8980304703,2.0730297719-3.0799843432,3.7368573632-2.1660116001l9.8248160521,6.4427525538c.4177110365.2294567682.761879455.5725447055.9926485079.9895321906l22.6144132428,39.5182261127c.4432227885.8008801595,1.9773337389,2.0379579892,2.8890025575,1.9560102302l17.8128639673-1.4008746944c1.5378861516-.1382369574,2.510284387-1.7167386342,1.9419856201-3.1524404776l-.9604932532-2.4265087567c-.4464876218-1.1279684895.0551428818-2.4091738056,1.1488000281-2.9341291902l3.1658008181-1.5195842608c1.1005118634-.5282456486,2.4220715153-.1095107451,3.0175673023.9561132948l3.166725797,5.6667724788c.4443181359.7950956117,1.3141916146,1.2550762084,2.2214583719,1.174685483l42.6864595309-3.7823444399c.6087332608-.0539383902,1.526800218.2406371712,1.9962742728.6318655503l4.1739130435,5.1086956522c1.3884324005,1.1570270004.7996315784,2.9879824648-.9130434783,3.5652173913l-66.7218179241,21.6659846884c-1.3375540103.4508052405-1.9621238384,1.9847959484-1.3198653134,3.2416889758l22.4497500256,43.9339194049c.3675119489.7192169323,1.0838247948,1.194398998,1.8893457683,1.253339557l18.9814137969,1.3888839364c.7028605517.0514288209,1.3438474791.4207427395,1.7408532375,1.0030178519l1.2866791623,1.887129438c.9407764536,1.3798054653.152510821,3.2712684916-1.4897155897,3.5746096757l-22.9690321119,4.2426874602c-.5466822335.1009795208-1.0386466323.3956326977-1.385691354.829934769l-15.4544818987,19.3401976108c-1.0775180434,1.3484380794-3.1992504434,1.0827350746-3.9109809881-.4897693036l-2.1428983164-4.734540354c-.2992853886-.6612440445-.2705444653-1.4246756512.0776110394-2.0615454768l9.525682478-17.4250289233c.3836588418-.7018149545.3771673013-1.552112057-.0171621211-2.2479875084l-24.6265488073-43.4586155423c-.7050650381-1.2442324201-2.3595168323-1.5559264477-3.4689970445-.6535492085Z"/>
  </g>
</svg>